# xmcd
# Track frame offsets:
# 150
# 12685
# 29554
# 50332
# 69343
# 80564
# 95445
# 116385
# 131916
# 138000
# 148355
# 158559
# 169515
# 177576
# 192086
# 197047
# 208589
# 214340
# 227561
# 242156
#
# Disc length: 3498 seconds
# Revision: 0
# Processed by: cddbd v1.5.1PL2 Copyright (c) Steve Scherf et al.
# Submitted via: VisiTrax 2.10.0.248 - For more info visit www.synapsa.com
#
DISCID=230da814
DTITLE=Tanya Tucker and Tammy Wynette - Country Divas
DYEAR=1900
DGENRE=Misc
TTITLE0=Tanya Tucker - San Antonio Stroll
TTITLE1=Tanya Tucker - The Night They Drove Old Dixie Down
TTITLE2=Tanya Tucker - Texas (When I Die)
TTITLE3=Tanya Tucker - Delta Dawn
TTITLE4=Tanya Tucker - Pecos Promenade
TTITLE5=Tanya Tucker - What's Your Mama's Name Child
TTITLE6=Tanya Tucker - Baby I'm Yours
TTITLE7=Tanya Tucker - You Are So Beautiful
TTITLE8=Tammy Wynette - Welcome To My World
TTITLE9=Tammy Wynette - Another Chance
TTITLE10=Tammy Wynette - Womanhood
TTITLE11=Tammy Wynette - Fairy Tales
TTITLE12=Tammy Wynette - When The Grass Grows Over Me
TTITLE13=Tammy Wynette - 'Til I Can Make It On My Own
TTITLE14=Tammy Wynette - Your Good Girl's Gonna Go Bad
TTITLE15=Tammy Wynette - D.I.V.O.R.C.E.
TTITLE16=Tammy Wynette - Singing My Song
TTITLE17=Tammy Wynette - Stand By Your Man
TTITLE18=Tammy Wynette - Crying In The Rain
TTITLE19=Tammy Wynette - Medley (Amazing Grace, I'll Fly Away, Will The Circl
TTITLE19=e Be Unbroken, I Saw The Light
EXTD=
EXTT0=
EXTT1=
EXTT2=
EXTT3=
EXTT4=
EXTT5=
EXTT6=
EXTT7=
EXTT8=
EXTT9=
EXTT10=
EXTT11=
EXTT12=
EXTT13=
EXTT14=
EXTT15=
EXTT16=
EXTT17=
EXTT18=
EXTT19=
PLAYORDER=
